<?xml version="1.0" standalone="no"?><!DOCTYPE svg PUBLIC "-//W3C//DTD SVG 1.1//EN" "http://www.w3.org/Graphics/SVG/1.1/DTD/svg11.dtd"><svg t="1675348196324" class="icon" viewBox="0 0 1024 1024" version="1.1" xmlns="http://www.w3.org/2000/svg" p-id="2910" xmlns:xlink="http://www.w3.org/1999/xlink" width="200" height="200"><path d="M921.605 91.462l33.617 0 0 824.809-885.093 0 0-33.078 850.911-1.718 0.564-790.013zM478.632 125.83c0-18.982 15.244-34.368 34.042-34.368l102.127 0c18.805 0 34.046 15.387 34.046 34.368l0 687.34-170.213 0 0-687.34zM682.888 332.036c0-18.982 15.237-34.371 34.039-34.371l102.127 0c18.805 0 34.046 15.39 34.046 34.371l0 481.137-170.211 0 0-481.137zM274.382 538.235c0-18.982 15.24-34.368 34.039-34.368l102.127 0c18.802 0 34.042 15.387 34.042 34.368l0 274.937-170.208 0 0-274.937zM104.167 710.068l102.127 0c18.802 0 34.042 15.387 34.042 34.371l0 68.731-170.208 0 0-68.731c0-18.984 15.241-34.371 34.039-34.371z" fill="#272636" p-id="2911"></path></svg>