<?xml version="1.0" standalone="no"?><!DOCTYPE svg PUBLIC "-//W3C//DTD SVG 1.1//EN" "http://www.w3.org/Graphics/SVG/1.1/DTD/svg11.dtd"><svg t="1672215862013" class="icon" viewBox="0 0 1024 1024" version="1.1" xmlns="http://www.w3.org/2000/svg" p-id="12237" xmlns:xlink="http://www.w3.org/1999/xlink" width="200" height="200"><path d="M705.28 115.2a275.84 275.84 0 0 1 264.192 355.584A386.176 386.176 0 0 1 892.416 627.2c-46.144 56.768-138.112 139.52-275.776 248.128a170.688 170.688 0 0 1-210.112 1.024l-21.696-16.832c-127.68-99.84-214.528-177.28-260.48-232.32C64.64 555.328 37.632 471.68 43.52 376.256l-0.768 17.536v-3.072A275.84 275.84 0 0 1 318.72 115.2c75.328 0 143.552 30.08 193.344 78.848A275.008 275.008 0 0 1 705.28 115.2z" fill="#333333" p-id="12238"></path></svg>